<?xml version="1.0" encoding="UTF-8" standalone="no"?>
<!-- Created with Inkscape (http://www.inkscape.org/) -->

<svg
   version="1.1"
   id="svg9"
   width="181.27554"
   height="79.891907"
   viewBox="0 0 181.27555 79.891906"
   sodipodi:docname="robloxGetButton.svg"
   inkscape:version="1.1 (c68e22c387, 2021-05-23)"
   xmlns:inkscape="http://www.inkscape.org/namespaces/inkscape"
   xmlns:sodipodi="http://sodipodi.sourceforge.net/DTD/sodipodi-0.dtd"
   xmlns="http://www.w3.org/2000/svg"
   xmlns:svg="http://www.w3.org/2000/svg">
  <defs
     id="defs13" />
  <sodipodi:namedview
     id="namedview11"
     pagecolor="#505050"
     bordercolor="#eeeeee"
     borderopacity="1"
     inkscape:pageshadow="0"
     inkscape:pageopacity="0"
     inkscape:pagecheckerboard="0"
     showgrid="false"
     inkscape:zoom="5.8254406"
     inkscape:cx="93.126003"
     inkscape:cy="41.971074"
     inkscape:window-width="1920"
     inkscape:window-height="1001"
     inkscape:window-x="-9"
     inkscape:window-y="-9"
     inkscape:window-maximized="1"
     inkscape:current-layer="layer1" />
  <g
     inkscape:groupmode="layer"
     id="layer1"
     inkscape:label="Image"
     style="display:inline"
     transform="translate(-11.182242,-2.687552)">
    <rect
       style="fill:#008d59;fill-opacity:1;stroke:#00ca80;stroke-width:1.00222;stroke-opacity:1"
       id="rect1452"
       width="180.27333"
       height="51.347416"
       x="11.683352"
       y="3.1886621"
       ry="8.4134731" />
    <text
       xml:space="preserve"
       style="font-style:normal;font-variant:normal;font-weight:bold;font-stretch:normal;font-size:20px;line-height:1.25;font-family:sans-serif;-inkscape-font-specification:'sans-serif Bold';fill:#000000;fill-opacity:1;stroke:none"
       x="82.230179"
       y="36.123116"
       id="text19040"><tspan
         sodipodi:role="line"
         id="tspan19038"
         x="82.230179"
         y="36.123116"
         style="font-style:normal;font-variant:normal;font-weight:bold;font-stretch:normal;font-size:20px;font-family:sans-serif;-inkscape-font-specification:'sans-serif Bold';fill:#ffffff;fill-opacity:1">Get</tspan></text>
    <g
       id="g1563"
       transform="matrix(0.5193218,0,0,0.5193218,359.69243,197.92083)">
      <path
         id="path1565"
         style="fill:#fefefe"
         d="m -368.99,-226.1 v -9 h -4 v -8 h -4 v -8 h -4 v -9 h -5 v -4 h -4 v -8 h 9 v 4 h 4 v 12 h 4 v -54 h 8 v 38 h 4 v -17 h 9 v 17 h 4 v -13 h 8 v 17 h 4 v -13 h 5 v 5 h 4 v 29 h -4 v 12 h -5 v 9 z" />
      <path
         id="path1567"
         style="fill:#000000"
         d="m -372.99,-222.1 v -13 h -4 v -8 h -4 v -8 h -5 v -9 h -4 v -4 h -4 v -12 h 13 v 4 h 4 v -38 h 4 v -4 h 8 v 4 h 4 v 17 h 9 v 4 h 12 v 4 h 9 v 4 h 4 v 5 h 4 v 29 h -4 v 12 h -4 v 13 z m 37,-4 v -9 h 5 v -12 h 4 v -29 h -4 v -5 h -5 v 13 h -4 v -17 h -8 v 13 h -4 v -17 h -9 v 17 h -4 v -38 h -8 v 54 h -4 v -12 h -4 v -4 h -9 v 8 h 4 v 4 h 5 v 9 h 4 v 8 h 4 v 8 h 4 v 9 z" />
    </g>
  </g>
</svg>
